<?xml version="1.0" encoding="utf-8"?>
<!-- Generator: Adobe Illustrator 16.0.0, SVG Export Plug-In . SVG Version: 6.00 Build 0)  -->
<!DOCTYPE svg PUBLIC "-//W3C//DTD SVG 1.1//EN" "http://www.w3.org/Graphics/SVG/1.1/DTD/svg11.dtd">
<svg version="1.1" xmlns="http://www.w3.org/2000/svg" xmlns:xlink="http://www.w3.org/1999/xlink" x="0px" y="0px"
	 width="841.89px" height="952px" viewBox="0 0 841.89 952" enable-background="new 0 0 841.89 952" xml:space="preserve">
<g id="Capa_2" display="none">
	
		<image display="inline" overflow="visible" width="904" height="878" xlink:href="../Captura de pantalla 2018-11-05 a la(s) 17.16.33.png"  transform="matrix(1 0 0 1 -1108.1729 50.6426)">
	</image>
</g>
<g id="Capa_3">
	<circle fill="#2F2F2F" cx="431.523" cy="476" r="380.758"/>
</g>
<g id="Capa_1">
	<path fill="#FFFFFF" stroke="#FFFFFF" stroke-width="1.5" stroke-miterlimit="10" d="M165.438,479.258l-1.765-3.088l26.285-4.75
		l-20.271,7.838h2.089l20.716-7.838l-6.967,6.967h-0.316l-7.411,0.871h8.351l31.996-8.154l-6.737,8.154h1.154l3.365-4.037
		l-2.355,4.037h0.954l5.202-8.471h9.499l-7.906,8.471h0.928l2.863-3.088l3.8-4.434l-1.656,7.521h1.282l0.057-0.238l0.95-3.166
		l-0.208,3.404h0.608l0.551-7.521l4.433,7.521h1.094l-1.093-1.82l-3.484-6.018l15.369,7.838h1.762l-17.765-8.789l7.602-2.85
		l14.756,11.639h1.22l-14.392-11.322l25.65,4.117l-0.939,7.205h0.691l1.197-6.889l10.269,6.889h1.526l-10.528-6.889l31.669,6.334
		l-0.32,0.555h0.82l0.134-0.238l0.336,0.238h1.693l-0.762-0.555l29.134-4.75l-3.473,5.305h0.734l3.055-4.67l0.778,4.67h0.869
		l-1.013-5.938l-0.316-0.318l-7.285-6.017c-0.316,0-0.316-0.317-0.633,0l-57.003,4.118l-27.552-4.118h-0.316c0,0,0,0-0.316,0
		l-7.601,2.851v-30.4l-2.534-38.004l4.433-25.334c0,0,0.318-0.317,0-0.317c0.318,0,0-0.316,0-0.316l-3.167-10.451v-31.667
		l-0.949-24.387c0-0.315,0-0.315-0.316-0.315l-10.768-3.167c0,0,0,0-0.317,0l-0.316-0.316l-40.853,2.217
		c-0.315,0-0.315,0-0.315,0.317l-4.435,5.7l-0.316,0.315c0,0.317-0.316,0.317-0.316,0.317l-2.217,27.552v0.315l2.217,7.602v10.449
		l-0.316,49.721c0,0.316,0,0.316,0.316,0.316l-3.482,14.568c0,0,0,0,0,0.316l3.799,20.9l-7.917,29.77v0.316l2.003,3.404H165.438z
		 M323.599,467.619l6.65,5.701l-27.234,4.434L323.599,467.619z M321.699,467.619l-21.535,10.451l-31.035-6.334L321.699,467.619z
		 M186.79,478.07l7.283-7.283h22.485L186.79,478.07z M207.692,428.984l12.984-18.052l5.699-7.601l-2.85,13.301l-4.117,18.052
		L207.692,428.984z M219.092,435.317l-14.249,17.734l1.582-15.518l0.951-7.917L219.092,435.317z M207.376,427.4l1.899-22.168
		l0.634-5.7l16.783,2.217L207.376,427.4z M226.06,364.064l-11.719-2.218l-25.016-5.384l14.25-5.699L226.06,364.064z
		 M188.058,329.861l-1.268-1.583l40.219,25.651l-23.434-4.117L188.058,329.861z M222.259,364.38l-31.668-1.585l-1.9-4.748
		l-0.316-0.951L222.259,364.38z M227.325,365.646l-15.518,8.234l-14.883,7.918l-1.9-6.019l-4.117-12.351L227.325,365.646z
		 M189.642,362.479l-16.469-2.534h-0.316l14.568-2.85L189.642,362.479z M189.958,363.43l3.167,9.184l2.85,8.232l-23.751-20.266
		L189.958,363.43z M195.975,382.113l-14.568,16.151l-9.816-37.052L195.975,382.113z M196.925,383.063l8.234,10.769l3.8,5.383
		l-24.067,17.734l4.434-12.033L196.925,383.063z M209.593,398.582l-6.018-8.234l-6.334-7.916l14.566-7.918l16.152-8.232
		l-7.283,12.667L209.593,398.582z M205.476,351.08l23.117,3.799v9.817L205.476,351.08z M186.474,327.327l32.302-2.217l9.501,28.503
		L186.474,327.327z M185.524,326.694l-6.651-16.149l38.636,13.932L185.524,326.694z M190.907,334.928l11.402,14.568l-19.952-4.751
		l-12.983-3.166l15.834-13.935L190.907,334.928z M201.675,350.445l-5.7,2.217l-8.233,3.484l-17.734-13.618L201.675,350.445z
		 M171.272,359.313v-9.501l15.201,6.65L171.272,359.313z M180.773,398.898l-0.316,0.634l-9.501,9.501l0.316-45.604L180.773,398.898z
		 M181.091,400.799l2.217,17.101l-14.885,5.7L181.091,400.799z M181.724,399.215l2.851-3.167l11.084-12.034l-11.718,32.301
		L181.724,399.215z M196.608,409.033l12.351-8.868l-1.267,13.936l-1.268,14.249l-21.851-10.134L196.608,409.033z M206.425,429.301
		l-2.533,23.751l-9.5-16.784l-9.5-17.101L206.425,429.301z M193.757,469.836l-21.533-23.119l31.668,8.236L193.757,469.836z
		 M194.708,470.154l7.918-12.352l1.9-2.85l13.934,15.201H194.708z M219.727,470.154l-12.985-13.936l21.852,13.936H219.727z
		 M213.075,459.387l-8.232-5.068l14.884-18.051l9.499,32.934L213.075,459.387z M229.543,466.985l-6.333-21.218l-2.85-9.816
		l1.582,0.633l7.601,3.483V466.985z M229.543,438.801l-9.499-3.8l7.281-31.034L229.543,438.801z M227.325,400.799l-16.783-1.9
		l20.901-21.851L227.325,400.799z M231.761,375.464l-19.953,20.901l17.103-30.084L231.761,375.464z M228.593,333.662v18.684
		l-8.549-25.968L228.593,333.662z M227.644,309.276l0.633,21.536l-9.185-21.219l-1.583-3.484L227.644,309.276z M227.96,331.762
		l-8.551-7.285l-1.9-16.467L227.96,331.762z M218.46,324.16l-38.635-13.933l36.417-4.118L218.46,324.16z M201.991,306.743
		l-23.75,2.851l-1.584-1.584L201.991,306.743z M175.706,308.327l1.585,1.583l-0.634,0.317l-4.117,2.534L175.706,308.327z
		 M177.924,310.545l6.335,14.883l-12.669-11.084L177.924,310.545z M171.272,314.977l13.619,12.034l-16.152,13.935L171.272,314.977z
		 M169.058,342.846l15.517,12.033l-13.302-6.016L169.058,342.846z M170.956,409.982l8.235-8.233l-5.067,9.817l-6.018,10.767
		L170.956,409.982z M171.907,423.283l11.717-4.433l19.002,33.567l-21.535-16.785l-12.984-10.766L171.907,423.283z M167.79,425.5
		l34.836,28.185l-31.354-8.233L167.79,425.5z M171.272,446.717l21.853,23.438l-29.452,5.066L171.272,446.717z"/>
	<g>
		<path fill="#FFFFFF" stroke="#FFFFFF" stroke-width="2" stroke-miterlimit="10" d="M111.409,566.068v-28.4h0.8v27.6h17.841v0.801
			H111.409z"/>
		<path fill="#FFFFFF" stroke="#FFFFFF" stroke-width="2" stroke-miterlimit="10" d="M133.569,566.068v-28.4h0.799v27.6h17.841
			v0.801H133.569z"/>
		<path fill="#FFFFFF" stroke="#FFFFFF" stroke-width="2" stroke-miterlimit="10" d="M165.129,566.268
			c-1.974,0-3.767-0.412-5.38-1.24c-1.614-0.826-3.008-1.906-4.18-3.24c-1.174-1.332-2.08-2.865-2.721-4.6
			c-0.64-1.732-0.96-3.506-0.96-5.32c0-1.893,0.34-3.705,1.021-5.439c0.68-1.732,1.613-3.266,2.8-4.6s2.586-2.393,4.2-3.18
			c1.613-0.787,3.353-1.18,5.22-1.18c1.946,0,3.733,0.42,5.36,1.26c1.626,0.84,3.02,1.939,4.18,3.299
			c1.16,1.361,2.06,2.9,2.699,4.621c0.641,1.719,0.961,3.459,0.961,5.219c0,1.92-0.34,3.748-1.021,5.48
			c-0.68,1.734-1.614,3.26-2.8,4.58c-1.188,1.32-2.58,2.373-4.18,3.16C168.729,565.875,166.995,566.268,165.129,566.268z
			 M152.688,551.867c0,1.76,0.313,3.461,0.94,5.102c0.626,1.639,1.486,3.094,2.58,4.359c1.093,1.268,2.399,2.273,3.92,3.02
			c1.521,0.748,3.187,1.121,5,1.121c1.84,0,3.526-0.395,5.06-1.182c1.533-0.785,2.84-1.818,3.92-3.1
			c1.08-1.279,1.92-2.732,2.521-4.359c0.6-1.627,0.899-3.279,0.899-4.961c0-1.76-0.313-3.459-0.939-5.1
			c-0.627-1.641-1.5-3.094-2.62-4.359s-2.434-2.273-3.94-3.02c-1.506-0.746-3.14-1.121-4.899-1.121c-1.841,0-3.526,0.395-5.06,1.18
			c-1.534,0.787-2.848,1.82-3.94,3.102c-1.094,1.279-1.94,2.732-2.54,4.359S152.688,550.188,152.688,551.867z"/>
		<path fill="#FFFFFF" stroke="#FFFFFF" stroke-width="2" stroke-miterlimit="10" d="M183.208,566.068v-28.4h11.561
			c1.146,0,2.213,0.246,3.199,0.74s1.834,1.146,2.54,1.959c0.706,0.814,1.261,1.734,1.66,2.76c0.399,1.027,0.601,2.074,0.601,3.141
			c0,1.094-0.174,2.146-0.521,3.16s-0.84,1.914-1.479,2.699c-0.641,0.787-1.407,1.428-2.301,1.922
			c-0.894,0.492-1.873,0.779-2.939,0.859l7.199,11.16h-0.959l-7.201-11.16h-10.56v11.16H183.208z M184.008,554.107h11.04
			c1.066,0,2.026-0.227,2.881-0.68c0.853-0.453,1.579-1.047,2.18-1.779c0.6-0.734,1.06-1.566,1.38-2.5
			c0.319-0.934,0.479-1.895,0.479-2.881c0-1.014-0.187-1.986-0.56-2.92c-0.374-0.934-0.888-1.76-1.54-2.48
			c-0.654-0.719-1.42-1.299-2.301-1.74c-0.879-0.439-1.812-0.658-2.799-0.658h-10.761V554.107z"/>
		<path fill="#FFFFFF" stroke="#FFFFFF" stroke-width="2" stroke-miterlimit="10" d="M226.528,565.268v0.801h-18.641v-28.4h18.28
			v0.801h-17.48v12.68h15.32v0.799h-15.32v13.32H226.528z"/>
		<path fill="#FFFFFF" stroke="#FFFFFF" stroke-width="2" stroke-miterlimit="10" d="M232.367,539.229v26.84h-0.8v-28.4h0.6
			l21.721,27.24v-27.24h0.8v28.4h-0.92L232.367,539.229z"/>
		<path fill="#FFFFFF" stroke="#FFFFFF" stroke-width="2" stroke-miterlimit="10" d="M269.888,571.068
			c0.399,0.186,0.906,0.354,1.52,0.5s1.266,0.219,1.96,0.219c1.546,0,2.319-0.506,2.319-1.52c0-0.561-0.18-0.953-0.539-1.18
			c-0.36-0.227-0.82-0.34-1.381-0.34c-0.56,0-1.146,0.072-1.76,0.221c-0.613,0.145-1.107,0.285-1.48,0.42l1.761-3.121
			c-1.894-0.027-3.627-0.473-5.2-1.34c-1.574-0.865-2.934-1.986-4.08-3.359s-2.033-2.92-2.66-4.641s-0.939-3.473-0.939-5.26
			c0-1.707,0.3-3.4,0.9-5.08c0.6-1.68,1.466-3.193,2.6-4.539c1.133-1.348,2.533-2.441,4.199-3.281c1.667-0.84,3.566-1.26,5.701-1.26
			c2.533,0,4.68,0.58,6.439,1.74s3.066,2.646,3.92,4.459l-0.76,0.24c-0.561-1.039-1.207-1.92-1.94-2.639
			c-0.733-0.721-1.534-1.301-2.399-1.74c-0.867-0.441-1.76-0.76-2.68-0.961c-0.921-0.199-1.834-0.299-2.74-0.299
			c-1.975,0-3.734,0.393-5.28,1.18c-1.547,0.787-2.854,1.82-3.921,3.1s-1.873,2.727-2.42,4.34s-0.819,3.234-0.819,4.859
			c0,1.814,0.326,3.547,0.979,5.201c0.654,1.654,1.547,3.113,2.681,4.379c1.133,1.268,2.46,2.275,3.979,3.021
			c1.521,0.746,3.16,1.119,4.92,1.119c0.934,0,1.894-0.119,2.881-0.359c0.986-0.24,1.939-0.6,2.859-1.08s1.773-1.1,2.561-1.861
			c0.785-0.76,1.459-1.658,2.02-2.699l0.76,0.199c-0.479,1.014-1.1,1.92-1.859,2.721s-1.614,1.475-2.561,2.02
			c-0.947,0.547-1.947,0.975-3,1.281c-1.054,0.307-2.1,0.486-3.14,0.539l-1.2,2.08c0.266-0.107,0.561-0.174,0.88-0.199
			c0.32-0.027,0.587-0.041,0.8-0.041c1.813,0,2.721,0.721,2.721,2.16c0,0.801-0.287,1.381-0.86,1.74s-1.366,0.541-2.38,0.541
			c-0.693,0-1.367-0.074-2.02-0.221c-0.654-0.146-1.234-0.326-1.74-0.541L269.888,571.068z"/>
		<path fill="#FFFFFF" stroke="#FFFFFF" stroke-width="2" stroke-miterlimit="10" d="M318.007,558.707
			c0,0.988-0.188,1.92-0.561,2.801c-0.374,0.881-0.881,1.66-1.52,2.34c-0.641,0.68-1.395,1.221-2.261,1.621
			c-0.866,0.398-1.78,0.6-2.739,0.6h-13.16v-28.4h12.56c0.986,0,1.88,0.213,2.681,0.641c0.799,0.426,1.479,0.979,2.039,1.66
			c0.561,0.68,0.993,1.453,1.301,2.318c0.306,0.867,0.459,1.74,0.459,2.621c0,1.439-0.366,2.76-1.1,3.959
			c-0.734,1.201-1.727,2.08-2.98,2.641c0.801,0.24,1.527,0.6,2.181,1.08s1.213,1.039,1.68,1.68c0.466,0.641,0.82,1.34,1.06,2.1
			C317.886,557.127,318.007,557.908,318.007,558.707z M298.565,538.469v12.879h11.521c0.88,0,1.681-0.186,2.4-0.561
			c0.72-0.373,1.34-0.865,1.86-1.479c0.52-0.613,0.926-1.301,1.219-2.061c0.294-0.76,0.441-1.541,0.441-2.34
			c0-0.854-0.141-1.666-0.421-2.439s-0.667-1.461-1.159-2.061c-0.494-0.6-1.094-1.074-1.801-1.42s-1.474-0.52-2.3-0.52H298.565z
			 M317.206,558.707c0-0.852-0.154-1.672-0.46-2.459c-0.307-0.787-0.728-1.486-1.26-2.1c-0.534-0.613-1.167-1.1-1.9-1.461
			c-0.733-0.359-1.526-0.539-2.38-0.539h-12.641v13.119h12.361c0.879,0,1.699-0.186,2.459-0.561c0.76-0.373,1.427-0.865,2-1.479
			c0.574-0.613,1.021-1.314,1.34-2.102C317.046,560.342,317.206,559.535,317.206,558.707z"/>
		<path fill="#FFFFFF" stroke="#FFFFFF" stroke-width="2" stroke-miterlimit="10" d="M322.966,566.068v-28.4h0.8v28.4H322.966z"/>
		<path fill="#FFFFFF" stroke="#FFFFFF" stroke-width="2" stroke-miterlimit="10" d="M347.085,541.428
			c-1.119-1.227-2.286-2.066-3.5-2.52c-1.213-0.453-2.659-0.68-4.34-0.68c-1.627,0-3.02,0.16-4.18,0.479
			c-1.16,0.32-2.113,0.781-2.859,1.381c-0.748,0.6-1.295,1.314-1.641,2.141c-0.347,0.826-0.52,1.76-0.52,2.799
			c0,1.014,0.173,1.861,0.52,2.541c0.346,0.68,0.881,1.254,1.6,1.719c0.721,0.467,1.646,0.867,2.781,1.201
			c1.133,0.334,2.485,0.66,4.059,0.98c1.574,0.318,3,0.666,4.281,1.039c1.279,0.373,2.365,0.84,3.26,1.4
			c0.893,0.561,1.58,1.254,2.06,2.08s0.72,1.867,0.72,3.119c0,2.32-0.887,4.094-2.66,5.32s-4.219,1.84-7.34,1.84
			c-2.293,0-4.326-0.354-6.1-1.061c-1.773-0.705-3.42-1.818-4.939-3.34l0.6-0.52c1.439,1.494,3.006,2.574,4.699,3.24
			s3.621,1,5.781,1c2.826,0,5.06-0.525,6.699-1.58c1.641-1.053,2.46-2.646,2.46-4.779c0-1.066-0.187-1.967-0.56-2.701
			c-0.374-0.732-0.947-1.365-1.721-1.9c-0.773-0.531-1.76-0.984-2.959-1.359c-1.201-0.373-2.614-0.719-4.24-1.039
			c-1.574-0.293-2.967-0.607-4.18-0.941c-1.215-0.332-2.24-0.76-3.08-1.279s-1.475-1.174-1.9-1.959
			c-0.428-0.787-0.641-1.768-0.641-2.941c0-1.227,0.233-2.312,0.701-3.26c0.465-0.945,1.133-1.746,2-2.4
			c0.865-0.652,1.906-1.146,3.119-1.479c1.213-0.334,2.58-0.5,4.1-0.5c1.813,0,3.394,0.26,4.74,0.779s2.58,1.395,3.7,2.619
			L347.085,541.428z"/>
		<path fill="#FFFFFF" stroke="#FFFFFF" stroke-width="2" stroke-miterlimit="10" d="M373.245,563.027
			c-1.12,1.014-2.38,1.807-3.779,2.381c-1.4,0.574-2.9,0.859-4.5,0.859c-1.975,0-3.768-0.412-5.381-1.24
			c-1.613-0.826-3.007-1.906-4.18-3.24c-1.174-1.332-2.08-2.865-2.721-4.6c-0.639-1.732-0.959-3.506-0.959-5.32
			c0-1.893,0.34-3.705,1.02-5.439c0.68-1.732,1.613-3.266,2.801-4.6c1.186-1.334,2.586-2.393,4.199-3.18s3.354-1.18,5.221-1.18
			c1.945,0,3.732,0.42,5.359,1.26s3.02,1.939,4.18,3.299c1.16,1.361,2.061,2.9,2.7,4.621c0.64,1.719,0.96,3.459,0.96,5.219
			c0,2.08-0.387,4.035-1.16,5.861s-1.84,3.42-3.199,4.779l2.879,3.561h-1L373.245,563.027z M364.966,565.469
			c1.545,0,2.973-0.281,4.279-0.842c1.307-0.559,2.48-1.305,3.52-2.238l-3-3.762h1l2.561,3.24c1.279-1.332,2.273-2.873,2.98-4.619
			c0.705-1.746,1.06-3.541,1.06-5.381c0-1.76-0.313-3.459-0.94-5.1s-1.5-3.094-2.619-4.359c-1.121-1.266-2.434-2.273-3.94-3.02
			s-3.14-1.121-4.899-1.121c-1.841,0-3.527,0.395-5.061,1.18c-1.533,0.787-2.848,1.82-3.939,3.102
			c-1.094,1.279-1.94,2.732-2.541,4.359c-0.6,1.627-0.899,3.279-0.899,4.959c0,1.76,0.313,3.461,0.94,5.102
			c0.625,1.639,1.486,3.094,2.58,4.359c1.092,1.268,2.399,2.273,3.92,3.02C361.485,565.096,363.151,565.469,364.966,565.469z"/>
		<path fill="#FFFFFF" stroke="#FFFFFF" stroke-width="2" stroke-miterlimit="10" d="M394.205,565.469c2.133,0,3.899-0.4,5.3-1.201
			c1.4-0.799,2.506-1.84,3.32-3.119c0.812-1.281,1.387-2.734,1.72-4.361c0.333-1.625,0.5-3.266,0.5-4.92v-14.199h0.8v14.199
			c0,1.895-0.193,3.707-0.58,5.441c-0.387,1.732-1.033,3.26-1.939,4.58c-0.907,1.318-2.1,2.379-3.58,3.18
			c-1.48,0.799-3.314,1.199-5.5,1.199c-2.24,0-4.107-0.412-5.6-1.24c-1.494-0.826-2.688-1.92-3.58-3.279
			c-0.895-1.359-1.527-2.9-1.9-4.621c-0.374-1.719-0.561-3.473-0.561-5.26v-14.199h0.801v14.199c0,1.707,0.166,3.375,0.5,5
			c0.333,1.627,0.912,3.08,1.74,4.361c0.826,1.279,1.933,2.307,3.319,3.08C390.351,565.082,392.099,565.469,394.205,565.469z"/>
		<path fill="#FFFFFF" stroke="#FFFFFF" stroke-width="2" stroke-miterlimit="10" d="M430.925,565.268v0.801h-18.641v-28.4h18.281
			v0.801h-17.48v12.68h15.32v0.799h-15.32v13.32H430.925z"/>
		<path fill="#FFFFFF" stroke="#FFFFFF" stroke-width="2" stroke-miterlimit="10" d="M435.964,566.068v-28.4h11.561
			c1.146,0,2.213,0.246,3.2,0.74c0.985,0.494,1.833,1.146,2.54,1.959c0.706,0.814,1.26,1.734,1.66,2.76
			c0.399,1.027,0.6,2.074,0.6,3.141c0,1.094-0.174,2.146-0.52,3.16c-0.348,1.014-0.84,1.914-1.48,2.699
			c-0.641,0.787-1.406,1.428-2.3,1.922c-0.894,0.492-1.874,0.779-2.94,0.859l7.2,11.16h-0.96l-7.2-11.16h-10.56v11.16H435.964z
			 M436.765,554.107h11.039c1.066,0,2.027-0.227,2.881-0.68s1.58-1.047,2.18-1.779c0.6-0.734,1.061-1.566,1.381-2.5
			c0.319-0.934,0.479-1.895,0.479-2.881c0-1.014-0.187-1.986-0.56-2.92c-0.375-0.934-0.888-1.76-1.541-2.48
			c-0.653-0.719-1.42-1.299-2.3-1.74c-0.88-0.439-1.813-0.658-2.8-0.658h-10.76V554.107z"/>
		<path fill="#FFFFFF" stroke="#FFFFFF" stroke-width="2" stroke-miterlimit="10" d="M460.645,566.068v-28.4h11.56
			c1.146,0,2.213,0.246,3.201,0.74c0.985,0.494,1.832,1.146,2.539,1.959c0.707,0.814,1.26,1.734,1.66,2.76
			c0.4,1.027,0.6,2.074,0.6,3.141c0,1.094-0.174,2.146-0.52,3.16c-0.347,1.014-0.84,1.914-1.48,2.699
			c-0.64,0.787-1.406,1.428-2.299,1.922c-0.895,0.492-1.875,0.779-2.941,0.859l7.201,11.16h-0.961l-7.199-11.16h-10.561v11.16
			H460.645z M461.444,554.107h11.04c1.066,0,2.026-0.227,2.88-0.68s1.58-1.047,2.18-1.779c0.601-0.734,1.061-1.566,1.381-2.5
			s0.48-1.895,0.48-2.881c0-1.014-0.188-1.986-0.561-2.92c-0.374-0.934-0.887-1.76-1.54-2.48c-0.653-0.719-1.42-1.299-2.3-1.74
			c-0.881-0.439-1.814-0.658-2.801-0.658h-10.76V554.107z"/>
		<path fill="#FFFFFF" stroke="#FFFFFF" stroke-width="2" stroke-miterlimit="10" d="M494.045,537.668h0.72l12.36,28.4h-0.88
			l-4.44-10.16h-14.84l-4.44,10.16h-0.879L494.045,537.668z M501.444,555.107l-7.039-16.279l-7.121,16.279H501.444z"/>
		<path fill="#FFFFFF" stroke="#FFFFFF" stroke-width="2" stroke-miterlimit="10" d="M517.004,551.668c0-1.707,0.3-3.4,0.9-5.08
			c0.6-1.68,1.466-3.193,2.6-4.539c1.133-1.348,2.533-2.441,4.2-3.281c1.666-0.84,3.566-1.26,5.7-1.26c2.533,0,4.68,0.58,6.439,1.74
			s3.066,2.646,3.92,4.459l-0.76,0.24c-0.56-1.039-1.207-1.92-1.939-2.639c-0.734-0.721-1.534-1.301-2.4-1.74
			c-0.867-0.441-1.76-0.76-2.68-0.961c-0.92-0.199-1.834-0.299-2.74-0.299c-1.974,0-3.734,0.393-5.28,1.18
			c-1.547,0.787-2.854,1.82-3.92,3.1s-1.874,2.727-2.42,4.34c-0.547,1.613-0.82,3.234-0.82,4.859c0,1.814,0.326,3.547,0.98,5.201
			c0.653,1.654,1.546,3.113,2.68,4.379c1.133,1.268,2.46,2.275,3.98,3.021c1.52,0.746,3.159,1.119,4.92,1.119
			c0.933,0,1.893-0.119,2.88-0.359c0.986-0.24,1.939-0.6,2.859-1.08c0.921-0.48,1.773-1.1,2.561-1.861
			c0.786-0.76,1.46-1.658,2.02-2.699l0.761,0.199c-0.48,1.068-1.134,2.014-1.96,2.842c-0.827,0.826-1.747,1.52-2.761,2.078
			c-1.014,0.561-2.087,0.98-3.22,1.262c-1.134,0.279-2.233,0.42-3.3,0.42c-1.92,0-3.694-0.428-5.32-1.281
			c-1.627-0.854-3.02-1.965-4.18-3.34c-1.16-1.373-2.067-2.934-2.72-4.68C517.33,555.262,517.004,553.482,517.004,551.668z"/>
		<path fill="#FFFFFF" stroke="#FFFFFF" stroke-width="2" stroke-miterlimit="10" d="M554.685,537.668h0.72l12.36,28.4h-0.88
			l-4.44-10.16h-14.84l-4.44,10.16h-0.88L554.685,537.668z M562.084,555.107l-7.039-16.279l-7.12,16.279H562.084z"/>
		<path fill="#FFFFFF" stroke="#FFFFFF" stroke-width="2" stroke-miterlimit="10" d="M572.284,539.229v26.84h-0.8v-28.4h0.6
			l21.721,27.24v-27.24h0.8v28.4h-0.92L572.284,539.229z"/>
		<path fill="#FFFFFF" stroke="#FFFFFF" stroke-width="2" stroke-miterlimit="10" d="M620.844,538.469h-10.88v27.6h-0.801v-27.6
			h-10.88v-0.801h22.561V538.469z"/>
		<path fill="#FFFFFF" stroke="#FFFFFF" stroke-width="2" stroke-miterlimit="10" d="M630.884,537.668h0.72l12.36,28.4h-0.88
			l-4.44-10.16h-14.84l-4.44,10.16h-0.88L630.884,537.668z M638.283,555.107l-7.039-16.279l-7.12,16.279H638.283z"/>
		<path fill="#FFFFFF" stroke="#FFFFFF" stroke-width="2" stroke-miterlimit="10" d="M647.684,566.068v-28.4h0.8v27.6h17.84v0.801
			H647.684z"/>
		<path fill="#FFFFFF" stroke="#FFFFFF" stroke-width="2" stroke-miterlimit="10" d="M669.844,566.068v-28.4h0.8v27.6h17.84v0.801
			H669.844z"/>
		<path fill="#FFFFFF" stroke="#FFFFFF" stroke-width="2" stroke-miterlimit="10" d="M701.404,566.268
			c-1.974,0-3.767-0.412-5.38-1.24c-1.614-0.826-3.007-1.906-4.181-3.24c-1.174-1.332-2.08-2.865-2.72-4.6
			c-0.64-1.732-0.96-3.506-0.96-5.32c0-1.893,0.34-3.705,1.021-5.439c0.68-1.732,1.612-3.266,2.8-4.6
			c1.186-1.334,2.586-2.393,4.2-3.18c1.612-0.787,3.353-1.18,5.22-1.18c1.946,0,3.733,0.42,5.359,1.26
			c1.627,0.84,3.021,1.939,4.181,3.299c1.16,1.361,2.06,2.9,2.7,4.621c0.64,1.719,0.96,3.459,0.96,5.219
			c0,1.92-0.341,3.748-1.021,5.48c-0.68,1.734-1.613,3.26-2.8,4.58s-2.58,2.373-4.18,3.16
			C705.004,565.875,703.271,566.268,701.404,566.268z M688.964,551.867c0,1.76,0.313,3.461,0.94,5.102
			c0.626,1.639,1.486,3.094,2.58,4.359c1.093,1.268,2.399,2.273,3.92,3.02c1.52,0.748,3.187,1.121,5,1.121
			c1.84,0,3.526-0.395,5.06-1.182c1.533-0.785,2.84-1.818,3.92-3.1c1.08-1.279,1.92-2.732,2.521-4.359
			c0.6-1.627,0.899-3.279,0.899-4.961c0-1.76-0.313-3.459-0.939-5.1c-0.627-1.641-1.5-3.094-2.62-4.359s-2.434-2.273-3.94-3.02
			s-3.14-1.121-4.899-1.121c-1.84,0-3.527,0.395-5.061,1.18c-1.533,0.787-2.847,1.82-3.939,3.102
			c-1.094,1.279-1.94,2.732-2.54,4.359C689.264,548.535,688.964,550.188,688.964,551.867z"/>
		<path fill="#FFFFFF" stroke="#FFFFFF" stroke-width="2" stroke-miterlimit="10" d="M719.483,566.068v-28.4h11.56
			c1.146,0,2.214,0.246,3.2,0.74s1.833,1.146,2.54,1.959c0.706,0.814,1.26,1.734,1.66,2.76c0.4,1.027,0.6,2.074,0.6,3.141
			c0,1.121-0.187,2.201-0.56,3.24c-0.374,1.041-0.9,1.961-1.58,2.76c-0.68,0.801-1.493,1.439-2.439,1.92
			c-0.947,0.48-1.994,0.721-3.141,0.721h-11.04v11.16H719.483z M720.283,554.107h11.04c1.066,0,2.033-0.227,2.9-0.68
			c0.866-0.453,1.593-1.053,2.18-1.801c0.586-0.746,1.04-1.586,1.36-2.52c0.319-0.934,0.479-1.879,0.479-2.84
			c0-1.014-0.187-1.986-0.56-2.92c-0.374-0.934-0.887-1.76-1.54-2.48c-0.654-0.719-1.42-1.299-2.3-1.74
			c-0.88-0.439-1.814-0.658-2.801-0.658h-10.76V554.107z"/>
		<path fill="#FFFFFF" stroke="#FFFFFF" stroke-width="2" stroke-miterlimit="10" d="M759.644,541.428
			c-1.12-1.227-2.287-2.066-3.5-2.52c-1.214-0.453-2.66-0.68-4.341-0.68c-1.626,0-3.02,0.16-4.18,0.479
			c-1.16,0.32-2.113,0.781-2.859,1.381c-0.747,0.6-1.294,1.314-1.641,2.141s-0.52,1.76-0.52,2.799c0,1.014,0.173,1.861,0.52,2.541
			s0.88,1.254,1.601,1.719c0.72,0.467,1.646,0.867,2.779,1.201s2.486,0.66,4.061,0.98c1.573,0.318,3,0.666,4.279,1.039
			c1.28,0.373,2.366,0.84,3.261,1.4c0.893,0.561,1.58,1.254,2.06,2.08c0.48,0.826,0.72,1.867,0.72,3.119
			c0,2.32-0.887,4.094-2.659,5.32c-1.774,1.227-4.221,1.84-7.341,1.84c-2.293,0-4.326-0.354-6.1-1.061
			c-1.773-0.705-3.42-1.818-4.94-3.34l0.601-0.52c1.439,1.494,3.006,2.574,4.7,3.24c1.692,0.666,3.62,1,5.779,1
			c2.826,0,5.061-0.525,6.7-1.58c1.641-1.053,2.46-2.646,2.46-4.779c0-1.066-0.187-1.967-0.56-2.701
			c-0.374-0.732-0.947-1.365-1.721-1.9c-0.773-0.531-1.76-0.984-2.96-1.359c-1.199-0.373-2.613-0.719-4.239-1.039
			c-1.574-0.293-2.967-0.607-4.181-0.941c-1.214-0.332-2.239-0.76-3.08-1.279c-0.84-0.52-1.474-1.174-1.899-1.959
			c-0.427-0.787-0.641-1.768-0.641-2.941c0-1.227,0.233-2.312,0.7-3.26c0.467-0.945,1.134-1.746,2-2.4
			c0.866-0.652,1.906-1.146,3.12-1.479c1.213-0.334,2.58-0.5,4.101-0.5c1.812,0,3.393,0.26,4.739,0.779s2.58,1.395,3.7,2.619
			L759.644,541.428z"/>
	</g>
	<g>
		<path fill="#FFFFFF" stroke="#FFFFFF" stroke-width="2" stroke-miterlimit="10" d="M211.991,659.26v0.5h-11.65v-17.75h11.426v0.5
			h-10.926v7.926h9.575v0.5h-9.575v8.324H211.991z"/>
		<path fill="#FFFFFF" stroke="#FFFFFF" stroke-width="2" stroke-miterlimit="10" d="M216.392,642.984v16.775h-0.5v-17.75h0.375
			l13.574,17.025V642.01h0.5v17.75h-0.574L216.392,642.984z"/>
		<path fill="#FFFFFF" stroke="#FFFFFF" stroke-width="2" stroke-miterlimit="10" d="M248.915,656.734
			c-1.85,2.102-3.983,3.15-6.399,3.15c-1.233,0-2.362-0.262-3.388-0.787s-1.908-1.213-2.65-2.062
			c-0.741-0.85-1.316-1.812-1.725-2.887c-0.408-1.076-0.612-2.164-0.612-3.264c0-1.15,0.2-2.266,0.6-3.35
			c0.4-1.084,0.954-2.045,1.663-2.887c0.708-0.842,1.558-1.514,2.55-2.014c0.991-0.5,2.079-0.75,3.263-0.75
			c0.916,0,1.732,0.096,2.449,0.287c0.717,0.193,1.351,0.459,1.9,0.801s1.021,0.75,1.412,1.225s0.729,0.996,1.013,1.562l-0.475,0.15
			c-0.684-1.25-1.559-2.15-2.625-2.699c-1.067-0.551-2.292-0.826-3.675-0.826c-1.167,0-2.217,0.246-3.15,0.738
			s-1.729,1.137-2.388,1.938c-0.658,0.799-1.162,1.709-1.513,2.725c-0.35,1.018-0.524,2.051-0.524,3.1
			c0,1.117,0.204,2.188,0.612,3.213s0.971,1.93,1.688,2.713s1.55,1.408,2.5,1.875s1.975,0.699,3.075,0.699
			c1.166,0,2.274-0.266,3.325-0.799c1.05-0.533,2.074-1.385,3.074-2.551v-4.225h-4.175v-0.5h4.675v8.449h-0.5V656.734z"/>
		<path fill="#FFFFFF" stroke="#FFFFFF" stroke-width="2" stroke-miterlimit="10" d="M253.54,659.76v-17.75h0.5v17.75H253.54z"/>
		<path fill="#FFFFFF" stroke="#FFFFFF" stroke-width="2" stroke-miterlimit="10" d="M259.614,642.984v16.775h-0.5v-17.75h0.375
			l13.575,17.025V642.01h0.5v17.75h-0.575L259.614,642.984z"/>
		<path fill="#FFFFFF" stroke="#FFFFFF" stroke-width="2" stroke-miterlimit="10" d="M277.313,642.01l6.851,10.301l6.875-10.301
			h0.575l-7.2,10.875v6.875h-0.5v-6.924l-7.175-10.826H277.313z"/>
		<path fill="#FFFFFF" stroke="#FFFFFF" stroke-width="2" stroke-miterlimit="10" d="M306.438,659.26v0.5h-11.649v-17.75h11.425v0.5
			h-10.925v7.926h9.575v0.5h-9.575v8.324H306.438z"/>
		<path fill="#FFFFFF" stroke="#FFFFFF" stroke-width="2" stroke-miterlimit="10" d="M310.339,659.76v-17.75h7.225
			c0.717,0,1.383,0.154,2,0.463s1.146,0.717,1.588,1.225c0.441,0.51,0.787,1.084,1.037,1.725c0.25,0.643,0.375,1.297,0.375,1.963
			c0,0.684-0.108,1.342-0.324,1.975c-0.217,0.635-0.525,1.197-0.926,1.688c-0.4,0.492-0.879,0.893-1.438,1.201
			s-1.171,0.486-1.838,0.537l4.5,6.975h-0.6l-4.5-6.975h-6.6v6.975H310.339z M310.839,652.285h6.9c0.666,0,1.266-0.141,1.799-0.426
			c0.533-0.283,0.988-0.652,1.363-1.111s0.662-0.979,0.862-1.562s0.3-1.184,0.3-1.801c0-0.633-0.117-1.24-0.35-1.824
			c-0.234-0.584-0.555-1.1-0.963-1.551c-0.408-0.449-0.887-0.812-1.438-1.088c-0.55-0.273-1.133-0.412-1.75-0.412h-6.725V652.285z"
			/>
		<path fill="#FFFFFF" stroke="#FFFFFF" stroke-width="2" stroke-miterlimit="10" d="M344.538,642.51h-6.8v17.25h-0.5v-17.25h-6.8
			v-0.5h14.1V642.51z"/>
		<path fill="#FFFFFF" stroke="#FFFFFF" stroke-width="2" stroke-miterlimit="10" d="M359.238,659.26v0.5h-11.649v-17.75h11.424v0.5
			h-10.924v7.926h9.574v0.5h-9.574v8.324H359.238z M352.013,636.811h0.826l1.625,1.824l-0.4,0.301L352.013,636.811z"/>
		<path fill="#FFFFFF" stroke="#FFFFFF" stroke-width="2" stroke-miterlimit="10" d="M361.488,650.76
			c0-1.066,0.188-2.125,0.562-3.174c0.375-1.051,0.916-1.996,1.625-2.838c0.708-0.842,1.583-1.525,2.625-2.051
			c1.041-0.525,2.229-0.787,3.562-0.787c1.583,0,2.925,0.363,4.024,1.088c1.101,0.725,1.917,1.654,2.45,2.787l-0.475,0.15
			c-0.351-0.65-0.755-1.201-1.213-1.65s-0.958-0.812-1.5-1.088s-1.1-0.475-1.675-0.6s-1.146-0.188-1.713-0.188
			c-1.233,0-2.333,0.246-3.3,0.738c-0.967,0.49-1.783,1.137-2.45,1.938c-0.666,0.799-1.171,1.703-1.512,2.711
			c-0.342,1.01-0.513,2.021-0.513,3.039c0,1.133,0.204,2.217,0.612,3.25s0.967,1.945,1.675,2.736
			c0.708,0.793,1.538,1.422,2.487,1.889c0.95,0.467,1.976,0.699,3.075,0.699c0.583,0,1.184-0.074,1.8-0.225
			c0.617-0.15,1.213-0.375,1.788-0.676c0.575-0.299,1.108-0.688,1.6-1.162s0.913-1.037,1.263-1.688l0.475,0.125
			c-0.3,0.666-0.708,1.258-1.225,1.775c-0.517,0.516-1.092,0.949-1.725,1.299c-0.634,0.352-1.305,0.613-2.013,0.789
			c-0.709,0.174-1.396,0.262-2.062,0.262c-1.2,0-2.309-0.266-3.325-0.801c-1.017-0.533-1.888-1.229-2.612-2.086
			c-0.726-0.859-1.292-1.834-1.7-2.926S361.488,651.895,361.488,650.76z"/>
		<path fill="#FFFFFF" stroke="#FFFFFF" stroke-width="2" stroke-miterlimit="10" d="M380.813,642.984v16.775h-0.5v-17.75h0.375
			l13.574,17.025V642.01h0.5v17.75h-0.574L380.813,642.984z"/>
		<path fill="#FFFFFF" stroke="#FFFFFF" stroke-width="2" stroke-miterlimit="10" d="M399.837,659.76v-17.75h0.5v17.75H399.837z"/>
		<path fill="#FFFFFF" stroke="#FFFFFF" stroke-width="2" stroke-miterlimit="10" d="M404.138,650.76
			c0-1.066,0.188-2.125,0.562-3.174c0.375-1.051,0.916-1.996,1.625-2.838c0.707-0.842,1.582-1.525,2.625-2.051
			c1.041-0.525,2.229-0.787,3.562-0.787c1.582,0,2.924,0.363,4.024,1.088s1.917,1.654,2.45,2.787l-0.475,0.15
			c-0.351-0.65-0.755-1.201-1.213-1.65c-0.459-0.449-0.959-0.812-1.5-1.088c-0.542-0.275-1.1-0.475-1.676-0.6
			c-0.574-0.125-1.146-0.188-1.712-0.188c-1.233,0-2.333,0.246-3.3,0.738c-0.967,0.49-1.783,1.137-2.45,1.938
			c-0.667,0.799-1.171,1.703-1.513,2.711c-0.342,1.01-0.512,2.021-0.512,3.039c0,1.133,0.203,2.217,0.611,3.25
			s0.967,1.945,1.676,2.736c0.708,0.793,1.537,1.422,2.487,1.889s1.976,0.699,3.075,0.699c0.583,0,1.184-0.074,1.8-0.225
			s1.212-0.375,1.788-0.676c0.574-0.299,1.107-0.688,1.6-1.162c0.491-0.475,0.912-1.037,1.262-1.688l0.476,0.125
			c-0.3,0.666-0.708,1.258-1.226,1.775c-0.516,0.516-1.092,0.949-1.725,1.299c-0.633,0.352-1.305,0.613-2.012,0.789
			c-0.709,0.174-1.396,0.262-2.062,0.262c-1.201,0-2.309-0.266-3.326-0.801c-1.016-0.533-1.887-1.229-2.611-2.086
			c-0.726-0.859-1.293-1.834-1.701-2.926S404.138,651.895,404.138,650.76z"/>
		<path fill="#FFFFFF" stroke="#FFFFFF" stroke-width="2" stroke-miterlimit="10" d="M429.612,659.76v-17.75h5.699
			c1.4,0,2.621,0.234,3.662,0.701c1.042,0.467,1.908,1.1,2.601,1.898c0.691,0.801,1.208,1.738,1.55,2.812
			c0.342,1.076,0.513,2.223,0.513,3.438c0,1.352-0.196,2.572-0.587,3.664c-0.393,1.092-0.947,2.023-1.663,2.799
			c-0.717,0.775-1.592,1.375-2.625,1.801c-1.034,0.424-2.184,0.637-3.45,0.637H429.612z M443.137,650.859
			c0-1.215-0.171-2.332-0.513-3.35c-0.342-1.016-0.846-1.895-1.512-2.637c-0.668-0.742-1.488-1.32-2.463-1.738
			c-0.975-0.416-2.088-0.625-3.338-0.625h-5.199v16.75h5.199c1.283,0,2.412-0.213,3.388-0.637c0.976-0.426,1.792-1.014,2.45-1.764
			s1.154-1.637,1.487-2.662S443.137,652.061,443.137,650.859z"/>
		<path fill="#FFFFFF" stroke="#FFFFFF" stroke-width="2" stroke-miterlimit="10" d="M446.812,645.51l0.25-2.15h-0.225v-1.85h0.65
			v1.85l-0.326,2.15H446.812z"/>
		<path fill="#FFFFFF" stroke="#FFFFFF" stroke-width="2" stroke-miterlimit="10" d="M458.562,659.885
			c-1.233,0-2.354-0.258-3.362-0.775c-1.009-0.516-1.879-1.191-2.612-2.023c-0.733-0.834-1.3-1.793-1.7-2.875
			c-0.399-1.084-0.6-2.191-0.6-3.326c0-1.184,0.212-2.316,0.638-3.4c0.425-1.082,1.008-2.041,1.75-2.875
			c0.741-0.832,1.616-1.494,2.625-1.986c1.008-0.492,2.096-0.738,3.262-0.738c1.217,0,2.334,0.264,3.351,0.787
			c1.017,0.525,1.888,1.213,2.612,2.062c0.725,0.852,1.287,1.812,1.688,2.889c0.4,1.074,0.6,2.162,0.6,3.262
			c0,1.201-0.212,2.342-0.637,3.426c-0.426,1.084-1.009,2.037-1.75,2.861c-0.742,0.826-1.613,1.484-2.613,1.977
			C460.812,659.639,459.729,659.885,458.562,659.885z M450.787,650.885c0,1.1,0.195,2.162,0.587,3.188s0.93,1.934,1.613,2.725
			c0.683,0.793,1.5,1.422,2.449,1.889c0.95,0.467,1.992,0.699,3.125,0.699c1.15,0,2.204-0.246,3.163-0.736
			c0.958-0.492,1.774-1.139,2.45-1.938c0.675-0.801,1.199-1.709,1.574-2.727c0.375-1.016,0.562-2.049,0.562-3.1
			c0-1.1-0.195-2.162-0.587-3.188s-0.938-1.934-1.638-2.725s-1.521-1.42-2.463-1.887s-1.962-0.701-3.062-0.701
			c-1.149,0-2.204,0.246-3.162,0.738c-0.959,0.492-1.779,1.137-2.463,1.938c-0.684,0.799-1.212,1.709-1.587,2.725
			C450.975,648.803,450.787,649.836,450.787,650.885z"/>
		<path fill="#FFFFFF" stroke="#FFFFFF" stroke-width="2" stroke-miterlimit="10" d="M483.262,655.16
			c0,0.617-0.116,1.199-0.351,1.75c-0.232,0.551-0.549,1.037-0.949,1.463c-0.4,0.424-0.871,0.762-1.412,1.012
			c-0.543,0.25-1.113,0.375-1.713,0.375h-8.225v-17.75h7.85c0.616,0,1.175,0.135,1.675,0.4c0.5,0.268,0.925,0.613,1.274,1.037
			c0.351,0.426,0.621,0.908,0.812,1.451c0.191,0.541,0.288,1.086,0.288,1.637c0,0.9-0.229,1.725-0.688,2.475
			s-1.079,1.301-1.862,1.65c0.5,0.15,0.953,0.375,1.362,0.676c0.408,0.299,0.759,0.648,1.05,1.049s0.513,0.838,0.662,1.312
			C483.187,654.172,483.262,654.66,483.262,655.16z M471.112,642.51v8.051h7.199c0.551,0,1.051-0.117,1.5-0.35
			c0.45-0.234,0.838-0.543,1.162-0.926c0.326-0.383,0.58-0.812,0.764-1.287c0.183-0.475,0.274-0.963,0.274-1.463
			c0-0.533-0.087-1.041-0.263-1.525c-0.175-0.482-0.416-0.912-0.725-1.287s-0.684-0.67-1.125-0.887s-0.922-0.326-1.438-0.326
			H471.112z M482.762,655.16c0-0.533-0.097-1.045-0.288-1.537s-0.453-0.93-0.787-1.312s-0.729-0.688-1.188-0.912
			c-0.459-0.227-0.954-0.338-1.487-0.338h-7.899v8.199h7.725c0.55,0,1.062-0.115,1.537-0.35c0.475-0.232,0.892-0.541,1.25-0.926
			c0.358-0.383,0.638-0.82,0.838-1.312C482.661,656.182,482.762,655.678,482.762,655.16z"/>
		<path fill="#FFFFFF" stroke="#FFFFFF" stroke-width="2" stroke-miterlimit="10" d="M487.112,659.76v-17.75h7.225
			c0.717,0,1.383,0.154,2,0.463c0.616,0.309,1.146,0.717,1.588,1.225c0.441,0.51,0.787,1.084,1.037,1.725
			c0.25,0.643,0.375,1.297,0.375,1.963c0,0.684-0.109,1.342-0.325,1.975c-0.217,0.635-0.524,1.197-0.925,1.688
			c-0.4,0.492-0.879,0.893-1.438,1.201s-1.172,0.486-1.838,0.537l4.5,6.975h-0.6l-4.5-6.975h-6.6v6.975H487.112z M487.612,652.285
			h6.899c0.667,0,1.267-0.141,1.8-0.426c0.533-0.283,0.988-0.652,1.363-1.111s0.662-0.979,0.861-1.562
			c0.201-0.584,0.301-1.184,0.301-1.801c0-0.633-0.117-1.24-0.35-1.824c-0.234-0.584-0.555-1.1-0.963-1.551
			c-0.408-0.449-0.888-0.812-1.438-1.088c-0.551-0.273-1.134-0.412-1.75-0.412h-6.725V652.285z"/>
		<path fill="#FFFFFF" stroke="#FFFFFF" stroke-width="2" stroke-miterlimit="10" d="M514.937,659.26v0.5h-11.65v-17.75h11.426v0.5
			h-10.926v7.926h9.575v0.5h-9.575v8.324H514.937z"/>
		<path fill="#FFFFFF" stroke="#FFFFFF" stroke-width="2" stroke-miterlimit="10" d="M528.712,644.359
			c-0.701-0.766-1.43-1.291-2.188-1.574c-0.76-0.283-1.663-0.426-2.713-0.426c-1.018,0-1.888,0.102-2.613,0.301
			c-0.725,0.199-1.32,0.488-1.787,0.863s-0.809,0.82-1.025,1.336c-0.217,0.518-0.324,1.102-0.324,1.75
			c0,0.635,0.107,1.164,0.324,1.588c0.217,0.426,0.551,0.783,1,1.076c0.451,0.291,1.029,0.541,1.738,0.75
			c0.708,0.207,1.554,0.412,2.537,0.611c0.983,0.201,1.875,0.418,2.676,0.65c0.799,0.234,1.479,0.525,2.037,0.875
			s0.987,0.783,1.287,1.301c0.301,0.516,0.45,1.166,0.45,1.949c0,1.449-0.554,2.559-1.663,3.324c-1.107,0.768-2.637,1.15-4.587,1.15
			c-1.434,0-2.704-0.221-3.812-0.662s-2.138-1.137-3.087-2.088l0.375-0.324c0.899,0.934,1.879,1.607,2.938,2.025
			c1.058,0.416,2.262,0.625,3.611,0.625c1.768,0,3.163-0.33,4.188-0.988c1.025-0.658,1.538-1.654,1.538-2.988
			c0-0.666-0.116-1.229-0.351-1.688c-0.232-0.457-0.592-0.854-1.074-1.188c-0.484-0.332-1.1-0.615-1.85-0.85
			c-0.75-0.232-1.635-0.449-2.65-0.65c-0.984-0.182-1.854-0.379-2.613-0.586c-0.758-0.209-1.399-0.477-1.924-0.801
			c-0.525-0.324-0.922-0.732-1.188-1.225c-0.268-0.492-0.4-1.104-0.4-1.838c0-0.766,0.146-1.445,0.438-2.037
			c0.291-0.592,0.708-1.092,1.25-1.5c0.541-0.408,1.191-0.717,1.949-0.926c0.759-0.207,1.613-0.312,2.562-0.312
			c1.134,0,2.121,0.162,2.963,0.488c0.842,0.324,1.613,0.871,2.312,1.637L528.712,644.359z"/>
		<path fill="#FFFFFF" stroke="#FFFFFF" stroke-width="2" stroke-miterlimit="10" d="M540.286,659.76v-17.75h7.225
			c0.717,0,1.383,0.154,2,0.463s1.146,0.717,1.588,1.225c0.441,0.51,0.787,1.084,1.037,1.725c0.25,0.643,0.375,1.297,0.375,1.963
			c0,0.701-0.117,1.375-0.35,2.025c-0.234,0.65-0.562,1.225-0.988,1.725c-0.424,0.5-0.934,0.9-1.524,1.201
			c-0.592,0.299-1.246,0.449-1.962,0.449h-6.9v6.975H540.286z M540.786,652.285h6.9c0.666,0,1.27-0.141,1.812-0.426
			c0.541-0.283,0.995-0.658,1.361-1.125c0.367-0.465,0.65-0.99,0.851-1.574s0.3-1.176,0.3-1.775c0-0.633-0.117-1.24-0.35-1.824
			c-0.234-0.584-0.555-1.1-0.963-1.551c-0.408-0.449-0.887-0.812-1.438-1.088c-0.55-0.273-1.133-0.412-1.75-0.412h-6.725V652.285z"
			/>
		<path fill="#FFFFFF" stroke="#FFFFFF" stroke-width="2" stroke-miterlimit="10" d="M562.86,659.385c1.334,0,2.438-0.25,3.312-0.75
			s1.566-1.15,2.075-1.949c0.509-0.801,0.866-1.709,1.075-2.725c0.208-1.018,0.312-2.043,0.312-3.076v-8.875h0.5v8.875
			c0,1.184-0.121,2.316-0.363,3.4c-0.241,1.084-0.646,2.037-1.212,2.863c-0.567,0.824-1.312,1.486-2.237,1.986
			c-0.926,0.5-2.071,0.75-3.438,0.75c-1.4,0-2.566-0.258-3.5-0.775c-0.934-0.516-1.68-1.199-2.238-2.049s-0.953-1.812-1.188-2.889
			c-0.232-1.074-0.35-2.17-0.35-3.287v-8.875h0.5v8.875c0,1.066,0.104,2.109,0.312,3.125c0.209,1.018,0.57,1.926,1.088,2.725
			c0.516,0.801,1.208,1.443,2.074,1.926C560.452,659.145,561.544,659.385,562.86,659.385z M562.536,638.936l-0.4-0.301l1.6-1.824
			h0.85L562.536,638.936z"/>
		<path fill="#FFFFFF" stroke="#FFFFFF" stroke-width="2" stroke-miterlimit="10" d="M587.561,655.16
			c0,0.617-0.116,1.199-0.351,1.75c-0.232,0.551-0.549,1.037-0.949,1.463c-0.4,0.424-0.871,0.762-1.412,1.012
			c-0.543,0.25-1.113,0.375-1.713,0.375h-8.225v-17.75h7.85c0.616,0,1.175,0.135,1.675,0.4c0.5,0.268,0.925,0.613,1.274,1.037
			c0.351,0.426,0.621,0.908,0.812,1.451c0.191,0.541,0.288,1.086,0.288,1.637c0,0.9-0.229,1.725-0.688,2.475
			s-1.079,1.301-1.862,1.65c0.5,0.15,0.953,0.375,1.362,0.676c0.408,0.299,0.759,0.648,1.05,1.049s0.513,0.838,0.662,1.312
			C587.485,654.172,587.561,654.66,587.561,655.16z M575.411,642.51v8.051h7.199c0.551,0,1.051-0.117,1.5-0.35
			c0.45-0.234,0.838-0.543,1.162-0.926c0.326-0.383,0.58-0.812,0.764-1.287c0.183-0.475,0.274-0.963,0.274-1.463
			c0-0.533-0.087-1.041-0.263-1.525c-0.175-0.482-0.416-0.912-0.725-1.287s-0.684-0.67-1.125-0.887s-0.922-0.326-1.438-0.326
			H575.411z M587.061,655.16c0-0.533-0.097-1.045-0.288-1.537s-0.453-0.93-0.787-1.312s-0.729-0.688-1.188-0.912
			c-0.459-0.227-0.954-0.338-1.487-0.338h-7.899v8.199h7.725c0.55,0,1.062-0.115,1.537-0.35c0.475-0.232,0.892-0.541,1.25-0.926
			c0.358-0.383,0.638-0.82,0.838-1.312C586.96,656.182,587.061,655.678,587.061,655.16z"/>
		<path fill="#FFFFFF" stroke="#FFFFFF" stroke-width="2" stroke-miterlimit="10" d="M591.41,659.76v-17.75h0.5v17.25h11.15v0.5
			H591.41z"/>
		<path fill="#FFFFFF" stroke="#FFFFFF" stroke-width="2" stroke-miterlimit="10" d="M606.011,659.76v-17.75h0.5v17.75H606.011z"/>
		<path fill="#FFFFFF" stroke="#FFFFFF" stroke-width="2" stroke-miterlimit="10" d="M623.761,657.859
			c-0.7,0.635-1.488,1.131-2.363,1.488c-0.875,0.359-1.812,0.537-2.812,0.537c-1.233,0-2.354-0.258-3.362-0.775
			c-1.009-0.516-1.879-1.191-2.612-2.023c-0.733-0.834-1.3-1.793-1.7-2.875c-0.399-1.084-0.6-2.191-0.6-3.326
			c0-1.184,0.212-2.316,0.638-3.4c0.425-1.082,1.008-2.041,1.75-2.875c0.741-0.832,1.616-1.494,2.625-1.986
			c1.008-0.492,2.096-0.738,3.262-0.738c1.217,0,2.334,0.264,3.351,0.787c1.017,0.525,1.888,1.213,2.612,2.062
			c0.725,0.852,1.287,1.812,1.688,2.889c0.4,1.074,0.6,2.162,0.6,3.262c0,1.301-0.241,2.521-0.725,3.662
			c-0.483,1.143-1.15,2.139-2,2.988l1.8,2.225h-0.625L623.761,657.859z M618.585,659.385c0.967,0,1.858-0.174,2.676-0.525
			c0.816-0.35,1.55-0.816,2.199-1.398l-1.875-2.352h0.625l1.601,2.025c0.8-0.832,1.421-1.795,1.862-2.887s0.662-2.213,0.662-3.363
			c0-1.1-0.195-2.162-0.587-3.188s-0.938-1.934-1.638-2.725s-1.521-1.42-2.463-1.887s-1.962-0.701-3.062-0.701
			c-1.149,0-2.204,0.246-3.162,0.738c-0.959,0.492-1.779,1.137-2.463,1.938c-0.684,0.799-1.212,1.709-1.587,2.725
			c-0.375,1.018-0.562,2.051-0.562,3.1c0,1.1,0.195,2.162,0.587,3.188s0.93,1.934,1.613,2.725c0.683,0.793,1.5,1.422,2.449,1.889
			C616.41,659.152,617.452,659.385,618.585,659.385z"/>
		<path fill="#FFFFFF" stroke="#FFFFFF" stroke-width="2" stroke-miterlimit="10" d="M637.61,659.385c1.333,0,2.438-0.25,3.312-0.75
			s1.566-1.15,2.075-1.949c0.508-0.801,0.866-1.709,1.074-2.725c0.209-1.018,0.312-2.043,0.312-3.076v-8.875h0.5v8.875
			c0,1.184-0.121,2.316-0.362,3.4s-0.646,2.037-1.212,2.863c-0.567,0.824-1.312,1.486-2.238,1.986c-0.925,0.5-2.07,0.75-3.438,0.75
			c-1.399,0-2.566-0.258-3.5-0.775c-0.934-0.516-1.679-1.199-2.237-2.049s-0.954-1.812-1.188-2.889
			c-0.233-1.074-0.35-2.17-0.35-3.287v-8.875h0.5v8.875c0,1.066,0.104,2.109,0.312,3.125c0.208,1.018,0.57,1.926,1.087,2.725
			c0.517,0.801,1.209,1.443,2.075,1.926C635.201,659.145,636.293,659.385,637.61,659.385z"/>
		<path fill="#FFFFFF" stroke="#FFFFFF" stroke-width="2" stroke-miterlimit="10" d="M661.311,659.26v0.5h-11.65v-17.75h11.426v0.5
			H650.16v7.926h9.575v0.5h-9.575v8.324H661.311z"/>
		<path fill="#FFFFFF" stroke="#FFFFFF" stroke-width="2" stroke-miterlimit="10" d="M675.085,644.359
			c-0.699-0.766-1.429-1.291-2.188-1.574c-0.758-0.283-1.662-0.426-2.712-0.426c-1.017,0-1.888,0.102-2.612,0.301
			c-0.726,0.199-1.321,0.488-1.788,0.863s-0.809,0.82-1.024,1.336c-0.217,0.518-0.325,1.102-0.325,1.75
			c0,0.635,0.108,1.164,0.325,1.588c0.216,0.426,0.55,0.783,1,1.076c0.449,0.291,1.028,0.541,1.737,0.75
			c0.708,0.207,1.554,0.412,2.537,0.611c0.983,0.201,1.875,0.418,2.675,0.65c0.801,0.234,1.479,0.525,2.038,0.875
			c0.558,0.35,0.987,0.783,1.287,1.301c0.3,0.516,0.45,1.166,0.45,1.949c0,1.449-0.555,2.559-1.662,3.324
			c-1.109,0.768-2.638,1.15-4.588,1.15c-1.434,0-2.704-0.221-3.812-0.662s-2.138-1.137-3.088-2.088l0.375-0.324
			c0.9,0.934,1.879,1.607,2.938,2.025c1.059,0.416,2.263,0.625,3.613,0.625c1.766,0,3.162-0.33,4.188-0.988
			c1.024-0.658,1.537-1.654,1.537-2.988c0-0.666-0.117-1.229-0.35-1.688c-0.234-0.457-0.592-0.854-1.075-1.188
			c-0.483-0.332-1.101-0.615-1.851-0.85c-0.75-0.232-1.633-0.449-2.649-0.65c-0.983-0.182-1.854-0.379-2.612-0.586
			c-0.759-0.209-1.4-0.477-1.926-0.801c-0.524-0.324-0.921-0.732-1.188-1.225s-0.399-1.104-0.399-1.838
			c0-0.766,0.146-1.445,0.438-2.037c0.291-0.592,0.708-1.092,1.25-1.5c0.541-0.408,1.191-0.717,1.95-0.926
			c0.758-0.207,1.612-0.312,2.562-0.312c1.133,0,2.12,0.162,2.962,0.488c0.842,0.324,1.612,0.871,2.312,1.637L675.085,644.359z"/>
	</g>
	<g>
		<path fill="#FFFFFF" stroke="#FFFFFF" stroke-width="2" stroke-miterlimit="10" d="M354.331,736.34v0.5h-11.65v-17.75h11.425v0.5
			h-10.925v7.926h9.574v0.5h-9.574v8.324H354.331z"/>
		<path fill="#FFFFFF" stroke="#FFFFFF" stroke-width="2" stroke-miterlimit="10" d="M358.73,720.064v16.775h-0.5v-17.75h0.375
			l13.575,17.025V719.09h0.5v17.75h-0.575L358.73,720.064z"/>
		<path fill="#FFFFFF" stroke="#FFFFFF" stroke-width="2" stroke-miterlimit="10" d="M391.255,733.814
			c-1.85,2.102-3.984,3.15-6.4,3.15c-1.233,0-2.362-0.262-3.387-0.787c-1.025-0.525-1.909-1.213-2.65-2.062
			c-0.742-0.85-1.316-1.812-1.725-2.887c-0.409-1.076-0.613-2.164-0.613-3.264c0-1.15,0.2-2.266,0.6-3.35
			c0.4-1.084,0.955-2.045,1.663-2.887s1.558-1.514,2.55-2.014s2.079-0.75,3.263-0.75c0.917,0,1.733,0.096,2.45,0.287
			c0.717,0.193,1.35,0.459,1.9,0.801c0.549,0.342,1.02,0.75,1.412,1.225c0.391,0.475,0.729,0.996,1.012,1.562l-0.475,0.15
			c-0.684-1.25-1.559-2.15-2.625-2.699c-1.066-0.551-2.291-0.826-3.675-0.826c-1.167,0-2.217,0.246-3.149,0.738
			c-0.934,0.492-1.73,1.137-2.389,1.938c-0.658,0.799-1.162,1.709-1.512,2.725c-0.35,1.018-0.525,2.051-0.525,3.1
			c0,1.117,0.204,2.188,0.613,3.213c0.408,1.025,0.971,1.93,1.688,2.713c0.716,0.783,1.549,1.408,2.5,1.875
			c0.949,0.467,1.975,0.699,3.074,0.699c1.166,0,2.275-0.266,3.325-0.799s2.075-1.385,3.075-2.551v-4.225h-4.176v-0.5h4.676v8.449
			h-0.5V733.814z"/>
		<path fill="#FFFFFF" stroke="#FFFFFF" stroke-width="2" stroke-miterlimit="10" d="M395.88,736.84v-17.75h0.5v17.75H395.88z"/>
		<path fill="#FFFFFF" stroke="#FFFFFF" stroke-width="2" stroke-miterlimit="10" d="M401.954,720.064v16.775h-0.5v-17.75h0.375
			l13.574,17.025V719.09h0.5v17.75h-0.574L401.954,720.064z"/>
		<path fill="#FFFFFF" stroke="#FFFFFF" stroke-width="2" stroke-miterlimit="10" d="M419.653,719.09l6.85,10.301l6.875-10.301
			h0.576l-7.201,10.875v6.875h-0.5v-6.924l-7.174-10.826H419.653z"/>
		<path fill="#FFFFFF" stroke="#FFFFFF" stroke-width="2" stroke-miterlimit="10" d="M448.778,736.34v0.5h-11.65v-17.75h11.426v0.5
			h-10.926v7.926h9.575v0.5h-9.575v8.324H448.778z"/>
		<path fill="#FFFFFF" stroke="#FFFFFF" stroke-width="2" stroke-miterlimit="10" d="M452.679,736.84v-17.75h7.225
			c0.717,0,1.383,0.154,2,0.463c0.616,0.309,1.146,0.717,1.588,1.225c0.441,0.51,0.787,1.084,1.037,1.725
			c0.25,0.643,0.375,1.297,0.375,1.963c0,0.684-0.109,1.342-0.325,1.975c-0.217,0.635-0.524,1.197-0.925,1.688
			c-0.4,0.492-0.879,0.893-1.438,1.201s-1.172,0.486-1.838,0.537l4.5,6.975h-0.6l-4.5-6.975h-6.6v6.975H452.679z M453.179,729.365
			h6.899c0.667,0,1.267-0.141,1.8-0.426c0.533-0.283,0.988-0.652,1.363-1.111s0.662-0.979,0.861-1.562
			c0.201-0.584,0.301-1.184,0.301-1.801c0-0.633-0.117-1.24-0.35-1.824c-0.234-0.584-0.555-1.1-0.963-1.551
			c-0.408-0.449-0.888-0.812-1.438-1.088c-0.551-0.273-1.134-0.412-1.75-0.412h-6.725V729.365z"/>
		<path fill="#FFFFFF" stroke="#FFFFFF" stroke-width="2" stroke-miterlimit="10" d="M474.228,727.84
			c0-1.066,0.188-2.125,0.562-3.174c0.375-1.051,0.916-1.996,1.625-2.838s1.584-1.525,2.625-2.051s2.229-0.787,3.562-0.787
			c1.584,0,2.926,0.363,4.025,1.088s1.916,1.654,2.449,2.787l-0.475,0.15c-0.35-0.65-0.754-1.201-1.213-1.65
			c-0.458-0.449-0.958-0.812-1.5-1.088c-0.541-0.275-1.1-0.475-1.674-0.6c-0.576-0.125-1.146-0.188-1.713-0.188
			c-1.234,0-2.334,0.246-3.301,0.738c-0.967,0.49-1.783,1.137-2.449,1.938c-0.667,0.799-1.172,1.703-1.513,2.711
			c-0.342,1.01-0.513,2.021-0.513,3.039c0,1.133,0.204,2.217,0.613,3.25c0.408,1.033,0.966,1.945,1.674,2.736
			c0.709,0.793,1.538,1.422,2.488,1.889c0.949,0.467,1.975,0.699,3.074,0.699c0.584,0,1.184-0.074,1.801-0.225
			c0.616-0.15,1.213-0.375,1.787-0.676c0.575-0.299,1.108-0.688,1.6-1.162c0.492-0.475,0.913-1.037,1.264-1.688l0.475,0.125
			c-0.301,0.666-0.709,1.258-1.225,1.775c-0.518,0.516-1.092,0.949-1.726,1.299c-0.634,0.352-1.304,0.613-2.013,0.789
			c-0.709,0.174-1.396,0.262-2.062,0.262c-1.199,0-2.309-0.266-3.324-0.801c-1.018-0.533-1.889-1.229-2.613-2.086
			c-0.725-0.859-1.291-1.834-1.699-2.926C474.432,730.086,474.228,728.975,474.228,727.84z"/>
		<path fill="#FFFFFF" stroke="#FFFFFF" stroke-width="2" stroke-miterlimit="10" d="M493.053,736.84v-17.75h0.5v17.75H493.053z"/>
		<path fill="#FFFFFF" stroke="#FFFFFF" stroke-width="2" stroke-miterlimit="10" d="M497.152,719.09l7.476,17.125l7.449-17.125
			h0.551l-7.726,17.75h-0.55l-7.725-17.75H497.152z"/>
		<path fill="#FFFFFF" stroke="#FFFFFF" stroke-width="2" stroke-miterlimit="10" d="M515.702,736.84v-17.75h0.5v17.75H515.702z"/>
		<path fill="#FFFFFF" stroke="#FFFFFF" stroke-width="2" stroke-miterlimit="10" d="M521.276,736.84v-17.75h0.5v17.25h11.15v0.5
			H521.276z"/>
	</g>
	<circle fill="#FFFFFF" cx="170.583" cy="649.516" r="4.86"/>
	<circle fill="#FFFFFF" cx="320.958" cy="728.016" r="4.86"/>
	<circle fill="#FFFFFF" cx="550.957" cy="728.016" r="4.86"/>
	<circle fill="#FFFFFF" cx="703.028" cy="649.516" r="4.86"/>
	<path fill="#FFFFFF" stroke="#FFFFFF" stroke-width="1.5" stroke-miterlimit="10" d="M355.946,479.258h0.732l-0.019-0.148
		l13.398-1.408l-0.655,1.557h0.636l0.254-0.617l0.042,0.617h0.551l-0.122-1.557l23.977-6.113l-6.336,7.67h0.847l3.845-4.613
		l-2.692,4.613h0.658l4.854-7.904h7.053l-7.378,7.904h0.699l3.622-3.908l2.82-3.291l-1.585,7.199h0.928l0.422-1.793l0.706-2.35
		l-0.253,4.143h0.431l0.527-7.199l4.242,7.199h0.829l-1.78-2.967l-2.586-4.467l14.575,7.434h1.409l-16.455-8.141l5.642-2.113
		l13.004,10.254h0.909l-12.738-10.02L430,472.293l-0.908,6.965h0.501l0.173-1.324l0.939-5.404l10.03,6.729h1.192l-10.283-6.729
		l23.508,4.701l-1.168,2.027h0.629l1.009-1.793l2.529,1.793h1.189l-2.778-2.027l21.627-3.527l-3.636,5.555h0.546l3.324-5.082
		l0.847,5.082h0.651l-1.028-6.023l-0.236-0.236l-5.405-4.465c-0.236,0-0.236-0.235-0.47,0l-42.312,3.055l-20.45-3.055h-0.235
		c0,0,0,0-0.234,0l-5.642,2.115v-22.565l-1.881-28.209l3.291-18.805c0,0,0.234-0.234,0-0.234c0.234,0,0-0.236,0-0.236l-2.35-7.757
		v-23.507l-0.707-18.101c0-0.234,0-0.234-0.234-0.234l-7.992-2.351c0,0,0,0-0.235,0l-0.235-0.234l-30.322,1.646
		c-0.234,0-0.234,0-0.234,0.235l-3.293,4.231l-0.234,0.234c0,0.235-0.234,0.235-0.234,0.235l-1.646,20.45v0.234l1.646,5.642v7.759
		l-0.235,36.904c0,0.234,0,0.234,0.235,0.234l-2.586,10.812c0,0,0,0,0,0.236l2.82,15.514l-5.876,22.098v0.234l2.351,3.994
		L355.946,479.258z M473.016,469.004l4.938,4.23l-20.215,3.291L473.016,469.004z M471.606,469.004l-15.984,7.756l-23.036-4.701
		L471.606,469.004z M370.527,476.996h-0.234l-11.988,1.41l17.395-6.582L370.527,476.996z M371.469,476.76l5.406-5.406h16.689
		L371.469,476.76z M386.983,440.324l9.638-13.397l4.231-5.642l-2.116,9.873l-3.056,13.397L386.983,440.324z M395.446,445.027
		l-10.578,13.162l1.175-11.518l0.705-5.877L395.446,445.027z M386.748,439.149l1.41-16.454l0.47-4.23l12.46,1.645L386.748,439.149z
		 M400.616,392.138l-8.697-1.646l-18.569-3.997l10.578-4.23L400.616,392.138z M372.409,366.75l-0.94-1.175l29.854,19.04
		l-17.395-3.056L372.409,366.75z M397.797,392.372l-23.507-1.175l-1.411-3.527l-0.235-0.704L397.797,392.372z M401.557,393.312
		l-11.518,6.111l-11.049,5.877l-1.41-4.466l-3.056-9.169L401.557,393.312z M373.584,390.961l-12.223-1.879h-0.234l10.812-2.116
		L373.584,390.961z M373.82,391.666l2.35,6.817l2.116,6.111l-17.63-15.044L373.82,391.666z M378.286,405.535l-10.813,11.988
		l-7.287-27.502L378.286,405.535z M378.99,406.241l6.112,7.991l2.821,3.996l-17.865,13.164l3.291-8.932L378.99,406.241z
		 M388.394,417.758l-4.466-6.11l-4.701-5.878l10.812-5.875l11.988-6.112l-5.406,9.403L388.394,417.758z M385.338,382.5l17.159,2.82
		v7.287L385.338,382.5z M371.234,364.869l23.975-1.645l7.053,21.154L371.234,364.869z M370.527,364.4l-4.936-11.988l28.679,10.342
		L370.527,364.4z M374.524,370.51l8.463,10.813l-14.81-3.525l-9.638-2.351l11.753-10.344L374.524,370.51z M382.518,382.029
		l-4.231,1.646l-6.112,2.584l-13.163-10.106L382.518,382.029z M359.951,388.61v-7.051l11.283,4.935L359.951,388.61z
		 M367.002,417.994l-0.234,0.471l-7.053,7.052l0.236-33.851L367.002,417.994z M367.237,419.404l1.646,12.694l-11.047,4.231
		L367.237,419.404z M367.708,418.229l2.115-2.35l8.228-8.934l-8.697,23.978L367.708,418.229z M378.756,425.517l9.168-6.583
		l-0.94,10.344l-0.94,10.578l-16.22-7.522L378.756,425.517z M386.043,440.561l-1.881,17.629l-7.051-12.459l-7.053-12.691
		L386.043,440.561z M376.641,470.648l-15.984-17.159l23.506,6.11L376.641,470.648z M377.346,470.883l5.876-9.168l1.411-2.115
		l10.342,11.283H377.346z M395.916,470.883l-9.639-10.343l16.22,10.343H395.916z M390.979,462.891l-6.111-3.76l11.048-13.4
		l7.053,24.447L390.979,462.891z M403.203,468.533l-4.701-15.75l-2.115-7.287l1.175,0.471l5.642,2.586V468.533z M403.203,447.611
		l-7.053-2.819l5.406-23.037L403.203,447.611z M401.557,419.404l-12.457-1.41l15.514-16.219L401.557,419.404z M404.848,400.599
		l-14.809,15.515l12.693-22.331L404.848,400.599z M402.497,369.571v13.867l-6.347-19.274L402.497,369.571z M401.793,351.471
		l0.469,15.984l-6.815-15.75l-1.176-2.586L401.793,351.471z M402.027,368.16l-6.347-5.406l-1.41-12.224L402.027,368.16z
		 M394.975,362.52l-28.677-10.344l27.032-3.057L394.975,362.52z M382.752,349.59l-17.631,2.115l-1.175-1.175L382.752,349.59z
		 M363.242,350.766l1.175,1.176l-0.471,0.234l-3.055,1.881L363.242,350.766z M364.887,352.412l4.702,11.047l-9.403-8.228
		L364.887,352.412z M359.951,355.702l10.107,8.933l-11.988,10.344L359.951,355.702z M358.305,376.388l11.519,8.933l-9.872-4.467
		L358.305,376.388z M359.715,426.221l6.112-6.111l-3.761,7.287l-4.467,7.992L359.715,426.221z M360.42,436.094l8.698-3.291
		l14.104,24.918l-15.984-12.459l-9.638-7.992L360.42,436.094z M357.364,437.74l25.857,20.92l-23.271-6.111L357.364,437.74z
		 M359.951,453.489l16.219,17.394l-21.861,3.762L359.951,453.489z M354.309,475.35l19.512-3.525l-17.631,6.816L354.309,475.35z"/>
	<path fill="#FFFFFF" stroke="#FFFFFF" stroke-width="1.5" stroke-miterlimit="10" d="M514.65,460.199l0.319,18.844
		c0,0.094-0.028,0.16-0.061,0.215h1.697l26.788-11.393l-11.394,11.393h1.128l3.878-3.729l7.026-7.346l-4.478,11.074h1.041
		l3.437-8.838l-1.155,8.838h1.004l1.109-8.199l0.735,8.199h0.741l-0.838-11.393l9.995,11.393h1.376l-10.412-11.713l17.246,7.984
		l-0.771,3.729h1.048l0.682-3.41l6.819,3.41h1.41l-7.591-4.047l11.816-3.834l4.243,7.881h0.757l-0.529-0.854l-3.832-7.027
		l19.802-1.277l-5.749,7.664l-1.234,1.494h1.062l0.173-0.215l7.027-8.623l10.918,8.838h1.059l-10.7-8.838l21.718,1.916l-0.944,6.922
		h0.518l0.427-3.41l0.639-3.512l15.65-3.833l-10.756,10.755h0.957l10.756-10.755l2.462,10.755h1.039l-2.542-10.755l14.69,5.429
		l13.904,5.326h6.467l6.456-1.174l7.346-1.277l-1.805,2.451h1.993l0.451-1.174l0.16,1.174h0.709l-0.23-2.77h18.843l-3.124,2.77
		h1.519l0.967-0.854l-0.539,0.854h0.695l1.76-2.77c0.319,0,0.319,0,0.319-0.32l-0.319-0.32l-0.958-37.046v-0.32l-15.01-19.163
		L694.14,419l-22.037-13.414l15.97-11.498l12.774-26.826v-17.248c0-0.318,0-0.318,0-0.638l-7.346-24.272
		c0-0.319-0.319-0.319-0.319-0.319l-21.079-13.413c0-0.32-0.319-0.32-0.319-0.641l-18.523-5.748l-32.896-1.597
		c-0.319,0-0.319,0-0.639,0l-22.037,0.958l-22.356-3.193l-18.204,4.471l-24.912-4.471l-17.246,4.471c0,0-0.319,0-0.319,0.32
		l-1.916,36.09v0.318v0.319l6.388,12.775l-8.623,38.005v0.32l8.623,40.879L514.65,460.199z M515.609,478.723v-18.205l11.496,2.557
		l16.608,3.832L515.609,478.723z M515.609,459.88l4.151-24.593l24.593,30.66L515.609,459.88z M520.08,434.648l18.204-4.15
		l1.278,7.025l4.791,27.467L520.08,434.648z M625.154,320.312l-0.318-6.707l4.471,6.389l-3.514,20.759L625.154,320.312z
		 M637.61,357.999l-11.817-6.388v-6.068L637.61,357.999z M625.154,344.266l-5.748,3.514l-7.027,4.152l11.817-37.367l0.64,25.869
		L625.154,344.266z M625.154,345.225v6.387l-12.136,0.959l7.983-4.791L625.154,345.225z M611.103,352.57l-11.817-2.875l6.389-9.262
		l17.246-25.23l-5.75,19.162L611.103,352.57z M599.604,347.779l2.555-13.414l3.515-17.565l17.884-3.833L599.604,347.779z
		 M601.521,334.046l-2.874,13.733l-1.916-9.581l-5.749-29.384l13.733,7.985L601.521,334.046z M598.327,349.376l-20.44,3.194
		l4.152-14.372l7.984-28.105L598.327,349.376z M598.967,350.334l12.455,3.193l14.052-1.277l13.733,7.665l3.194,8.943l-8.624,15.968
		l-15.968,5.43h-20.761h-0.318l-20.121-2.235l0.958-34.493L598.967,350.334z M683.281,436.564l-4.151,9.902l-1.278-2.875
		l-6.707-15.33l15.969-1.916L683.281,436.564z M687.753,426.984l12.136,26.188l-20.121-6.068L687.753,426.984z M658.689,443.592
		l-6.388-2.874l11.817-7.665l5.429-3.833l-7.665,15.33L658.689,443.592z M661.244,445.508l-6.388,8.304l-3.194,4.152v-16.288
		l4.791,1.916L661.244,445.508z M651.662,439.76l-2.555-23.315l-1.597-15.649l23.634,5.11L651.662,439.76z M552.977,427.623
		l0.318,10.539l-2.874-1.598l-11.179-6.706l12.137-44.394L552.977,427.623z M552.018,384.188l9.901,14.053l-5.43,24.592
		l-2.556,11.816L552.018,384.188z M554.253,439.121l21.398-7.984l-14.691,16.926l-14.69,16.608L554.253,439.121z M554.253,438.162
		l3.194-15.648l4.79-22.995l14.372,30.34L554.253,438.162z M556.169,388.659l-3.513-4.791l11.179,2.236l11.179,2.555l-12.457,8.942
		L556.169,388.659z M576.29,388.979l15.97,22.037l-29.063-13.094L576.29,388.979z M588.746,404.947l-11.498-15.969l18.844,1.916
		l-3.194,19.801L588.746,404.947z M593.217,412.611l0.959,3.195l2.873,7.665l-13.412,4.47l-5.11,1.598l10.858-12.774
		L593.217,412.611z M597.688,424.109l20.121,6.707l-38.326-0.958L597.688,424.109z M598.008,423.472l-3.513-9.263l-0.319-1.277
		l23.634,17.247L598.008,423.472z M593.856,411.654l2.874-19.801l10.22,17.246l11.498,20.439L593.856,411.654z M649.427,388.021
		l-2.235,9.901l-3.193-21.08l-0.959-7.025l4.791,1.916l5.11,1.916L649.427,388.021z M653.898,373.648l19.801-3.832l-4.789,5.109
		l-21.08,23.314L653.898,373.648z M643.998,382.592l2.235,15.969l-4.471-5.111l-7.347-8.623l7.985-14.691L643.998,382.592z
		 M639.207,391.854l7.026,8.303l-9.581,15.012l-0.958-12.457l-1.278-16.287L639.207,391.854z M635.694,414.848l-6.388-9.262
		l-10.54-15.011l15.011-4.791L635.694,414.848z M634.736,414.848l-36.729-23.953h19.802L634.736,414.848z M607.908,409.738
		l-8.304-14.691l29.383,35.77h-8.623L607.908,409.738z M598.967,392.491l36.728,23.953l-6.067,14.054L598.967,392.491z
		 M636.014,418.041l0.958,10.541v2.234h-6.388L636.014,418.041z M636.652,418.041l13.414,21.719l-12.456-8.623L636.652,418.041z
		 M636.652,416.444l6.707-10.539l3.194-4.471l2.554,22.675l1.598,15.012L636.652,416.444z M648.47,400.156l21.717-7.984l0.32,6.389
		l0.638,6.387L648.47,400.156z M670.187,391.215l-21.717,7.983l11.817-13.094l13.732-15.33l-2.875,16.288L670.187,391.215z
		 M675.296,369.496l23.635-1.916l-27.786,22.676L675.296,369.496z M674.339,367.58l-11.817-21.079l6.707,4.472l7.026,4.791
		L674.339,367.58z M674.339,368.858l-20.121,3.832l7.665-26.189L674.339,368.858z M661.244,344.904l-5.748-2.555l31.938-14.053
		L661.244,344.904z M660.925,345.543l-7.026,24.273l0.639-22.357l0.319-4.471L660.925,345.543z M653.26,372.69l-10.221-3.832
		l10.859-24.273L653.26,372.69z M642.72,368.219l-2.873-8.623l13.094-15.011L642.72,368.219z M575.971,388.021l-23.634-5.11
		l24.593-28.744L575.971,388.021z M551.698,381.952l-2.236-6.067l-14.69-41.839l39.283-20.759l-21.718,66.748L551.698,381.952z
		 M550.74,381.952l-15.969-12.136v-33.854L550.74,381.952z M551.059,382.91l-24.591,18.524l8.304-30.66L551.059,382.91z
		 M534.133,369.178l-14.053-14.054l14.053-20.12V369.178z M534.133,370.454l-7.984,29.384l-6.068-43.436L534.133,370.454z
		 M546.589,387.381l3.513-2.873l-29.703,47.587l5.75-29.384L546.589,387.381z M550.421,386.104l-12.137,43.754l-6.068,1.278
		l-11.817,2.555L550.421,386.104z M544.991,464.671l-5.749-33.854l13.734,7.985L544.991,464.671z M564.154,474.572l-9.262-3.834
		l-9.263-4.151l30.66-34.492l-5.11,17.884L564.154,474.572z M576.93,470.42l-7.985,2.873l-3.832,1.279l11.817-41.84V470.42z
		 M563.196,398.879l15.969,7.026l13.732,6.068l-1.277,1.597l-14.053,15.649L563.196,398.879z M639.526,467.225l-17.246,4.473
		l-23.313-2.235c0,0,0,0-0.32,0h-0.319l-20.76,0.958v-39.922l42.478,1.276h17.246l13.733,9.581v17.566L639.526,467.225z
		 M640.166,467.545l11.177-7.984l17.247,18.844L640.166,467.545z M661.563,469.781l-9.901-10.859l9.901-12.775l7.984,31.938
		L661.563,469.781z M670.187,476.488l-7.665-31.3l7.665-15.649V476.488z M660.925,434.011l-8.623,5.749l18.524-32.258l-0.64,20.439
		L660.925,434.011z M670.826,429.858l7.983,17.566l-5.11,19.481l-2.873,9.9V429.858z M672.742,472.016l6.707-24.271l20.121,6.067
		l-2.237,2.236l-26.188,22.356L672.742,472.016z M689.669,475.848l-17.566,2.875l15.65-13.414l11.496-9.9l-3.832,8.305
		L689.669,475.848z M690.626,475.848l7.027-14.689l2.874-6.389l2.235,5.11l6.707,15.968H690.626z M709.79,474.252l-5.11-11.497
		l-3.833-8.943l7.984-13.733L709.79,474.252z M700.527,452.854l-4.151-8.623l-7.666-16.927l19.802,11.498L700.527,452.854z
		 M707.234,437.205l-5.748-3.194l-13.096-8.304l5.749-5.748L707.234,437.205z M693.501,419.639l-5.748,5.749l-2.236-3.194
		l-12.137-15.33L693.501,419.639z M682.003,419.318l4.791,6.069l-15.649,2.235l0.958-21.078L682.003,419.318z M672.103,404.947
		l-0.639-6.387l-0.638-6.389l15.968,1.916L672.103,404.947z M687.434,393.449l-4.152-0.638l-11.817-1.597l27.785-22.996
		L687.434,393.449z M675.296,368.538l1.278-8.304l0.64-4.152l22.035,10.54L675.296,368.538z M700.208,366.303l-22.037-10.539
		l4.791-1.277l17.246-4.152V366.303z M699.889,349.376l-22.037,5.429l7.346-14.052l7.666-14.372L699.889,349.376z M676.894,355.124
		l-14.69-9.899l30.021-18.844L676.894,355.124z M655.177,341.711l2.554-7.027l7.985-19.801l26.188,10.221L655.177,341.711z
		 M689.35,323.188l-22.677-8.943l2.237-1.277l2.554-1.277L689.35,323.188z M670.507,311.371l-4.791,2.234l-10.539-7.346
		L670.507,311.371z M665.076,314.244l-10.22,25.55v0.64l-1.276-25.869l-0.32-8.623L665.076,314.244z M653.898,338.198l0.319,3.833
		l-14.052,15.968l12.455-50.142L653.898,338.198z M645.914,332.768l-6.707,25.871l-1.597-1.598l-11.497-12.775l25.869-36.728
		L645.914,332.768z M626.113,342.988l4.151-22.994l18.843-11.818l2.235-1.277L626.113,342.988z M643.679,310.73l-13.733,8.305
		l-4.791-6.389l25.551-6.387L643.679,310.73z M650.386,305.621l-25.55,6.388l-2.875-5.429l-1.277-2.557L650.386,305.621z
		 M619.726,304.023l4.151,7.666l-23.953-6.707L619.726,304.023z M615.573,310.093l7.347,2.235l-17.566,3.833l-6.387-10.54
		L615.573,310.093z M603.756,315.203l-12.455-7.027l6.388-2.874L603.756,315.203z M596.092,304.982l-6.068,2.556l-11.497-5.11
		L596.092,304.982z M575.651,302.107l1.916,0.959l11.179,4.791l-2.556,0.957l-10.539,2.875V302.107z M580.442,311.371l8.942-2.557
		l-11.817,41.84l-1.597-33.217l-0.319-4.791L580.442,311.371z M576.93,352.889l-24.273,28.425l22.037-66.431L576.93,352.889z
		 M574.693,312.009l-36.409,19.162l36.409-28.743V312.009z M573.416,302.428l-36.09,28.424l19.802-24.592L573.416,302.428z
		 M535.729,331.491l0.959-2.874l5.748-13.734l11.498-6.707l1.597-0.958L535.729,331.491z M555.85,305.941l-13.732,7.983
		l-8.942-11.817L555.85,305.941z M536.368,307.538l5.11,7.026l-6.707,17.564l-1.916-29.062L536.368,307.538z M533.812,328.297
		l0.32,5.11l-20.439,8.304l18.203-38.645L533.812,328.297z M515.609,306.26l15.969-4.152l-18.205,38.326L515.609,306.26z
		 M513.373,342.35l8.623-3.193l11.179-4.473l-13.733,19.803L513.373,342.35z M519.441,357.36l6.067,44.394l-14.371-8.305
		L519.441,357.36z M511.457,394.407l14.052,7.985l-6.067,30.34L511.457,394.407z"/>
</g>
</svg>
